<?xml version="1.0" standalone="no"?>
<!DOCTYPE svg PUBLIC "-//W3C//DTD SVG 20010904//EN"
 "http://www.w3.org/TR/2001/REC-SVG-20010904/DTD/svg10.dtd">
<svg version="1.0" xmlns="http://www.w3.org/2000/svg"
 width="512.000000pt" height="512.000000pt" viewBox="0 0 512.000000 512.000000"
 preserveAspectRatio="xMidYMid meet">
<metadata>
Created by potrace 1.11, written by Peter Selinger 2001-2013
</metadata>
<g transform="translate(0.000000,512.000000) scale(0.100000,-0.100000)"
fill="#000000" stroke="none">
<path d="M257 4619 c-85 -20 -177 -81 -228 -153 l-29 -39 0 -1841 0 -1841 37
-46 c46 -56 110 -102 184 -131 l54 -21 2270 -2 c2071 -1 2275 0 2331 15 92 25
164 72 217 141 l27 36 0 1857 0 1858 -55 54 c-34 34 -82 68 -123 87 l-67 32
-2290 2 c-1308 0 -2306 -3 -2328 -8z m4614 -161 c53 -23 105 -73 130 -125 20
-41 23 -65 25 -199 2 -111 0 -153 -9 -156 -7 -2 -1114 -4 -2462 -4 l-2450 1
-1 145 c-1 117 2 155 17 195 23 63 93 130 156 148 36 11 468 13 2301 12 2040
-1 2260 -2 2293 -17z m145 -638 c8 0 11 -415 10 -1467 l-1 -1468 -30 -53 c-30
-56 -83 -100 -145 -121 -26 -9 -580 -11 -2286 -11 -1238 0 -2260 2 -2270 6
-87 29 -153 90 -176 161 -13 41 -15 229 -15 1500 l0 1452 56 3 c41 2 4793 1
4857 -2z"/>
<path d="M1149 4297 c-56 -15 -69 -97 -21 -133 14 -11 317 -13 1600 -14 l1583
0 24 25 c33 32 33 74 0 105 l-24 23 -1566 1 c-861 1 -1579 -3 -1596 -7z"/>
<path d="M307 4288 c-24 -19 -36 -59 -25 -87 20 -54 82 -68 123 -26 30 30 32
64 4 99 -23 29 -73 36 -102 14z"/>
<path d="M545 4275 c-29 -28 -31 -45 -10 -84 23 -46 76 -55 113 -21 23 22 25
29 23 70 -4 58 -82 80 -126 35z"/>
<path d="M792 4277 c-45 -48 -11 -127 55 -127 33 0 73 42 73 78 0 63 -84 95
-128 49z"/>
<path d="M2305 3057 c-27 -23 -74 -65 -105 -94 l-55 -52 -5 77 -5 77 -747 0
c-658 0 -748 -2 -749 -15 0 -8 -2 -367 -4 -797 -3 -596 -1 -782 8 -785 10 -3
1430 -2 1480 1 16 1 17 36 17 587 0 380 3 591 10 599 5 6 7 15 3 19 -4 4 1 4
12 0 15 -6 17 -4 12 10 -4 11 -3 15 4 10 13 -8 60 36 52 49 -3 6 -2 7 4 4 13
-8 55 22 47 34 -3 5 -2 8 3 7 10 -3 63 36 63 47 0 3 -5 3 -12 -1 -7 -4 -8 -3
-4 5 4 6 11 9 16 6 4 -3 19 4 31 16 13 11 18 17 10 13 -9 -5 -12 -3 -7 5 4 6
11 9 15 6 5 -2 29 15 55 38 38 36 46 49 46 78 0 57 -48 99 -112 99 -24 -1 -47
-12 -83 -43z"/>
<path d="M3244 2925 c-95 -20 -150 -63 -191 -151 -25 -54 -27 -70 -27 -174 0
-79 7 -146 22 -215 11 -55 26 -129 32 -165 6 -36 13 -76 16 -90 9 -52 4 -177
-11 -223 -41 -135 -163 -193 -276 -134 -65 35 -101 98 -102 180 0 74 20 117
71 149 26 16 51 20 128 21 91 1 95 2 90 21 -3 12 -11 45 -18 74 l-11 53 -131
-2 c-158 -2 -213 -18 -267 -78 -50 -55 -71 -133 -65 -242 5 -103 28 -161 91
-228 72 -77 193 -121 317 -116 85 3 161 31 229 83 133 102 181 255 156 501 -5
41 -10 77 -12 80 -1 3 -6 22 -9 41 -3 19 -12 68 -20 107 -43 203 -48 276 -21
317 17 26 55 43 72 33 5 -3 10 -34 11 -68 6 -154 114 -255 195 -181 23 20 57
84 64 121 10 45 6 127 -7 167 -17 52 -60 113 -85 120 -37 10 -191 9 -241 -1z"/>
<path d="M4440 2922 c-26 -14 -44 -37 -71 -90 -33 -65 -49 -127 -95 -367 -2
-11 -8 -42 -14 -70 -5 -27 -12 -63 -14 -79 -3 -16 -11 -55 -17 -85 -6 -31 -12
-61 -13 -68 -4 -24 -16 -26 -17 -2 -1 13 -2 35 -4 49 -1 14 -5 52 -9 85 -4 33
-8 76 -11 95 -4 37 -11 97 -21 195 -29 292 -62 369 -144 335 -40 -16 -57 -62
-86 -225 -3 -16 -9 -49 -15 -73 -5 -24 -12 -61 -14 -84 -3 -22 -7 -44 -10 -48
-2 -3 -9 -33 -14 -66 -6 -32 -12 -70 -15 -84 -11 -51 -16 -76 -21 -110 -3 -19
-8 -46 -10 -60 -8 -40 -15 -73 -20 -100 -3 -14 -7 -36 -10 -50 -3 -14 -9 -49
-15 -78 -13 -71 -37 -119 -62 -126 -12 -3 -46 4 -77 14 -71 26 -93 25 -118 -2
-23 -25 -49 -95 -59 -157 l-6 -40 135 2 c152 2 167 8 219 83 30 44 57 157 111
474 3 14 12 66 22 115 9 50 17 98 18 107 1 21 10 14 12 -10 1 -9 5 -52 9 -94
4 -42 9 -85 10 -95 2 -10 7 -49 11 -88 4 -38 9 -78 11 -87 1 -9 6 -48 9 -85 4
-37 8 -75 10 -83 2 -8 7 -44 10 -80 4 -36 11 -82 16 -104 12 -43 52 -86 77
-81 9 2 23 4 30 4 25 2 52 88 93 297 23 115 43 223 46 239 2 17 9 47 14 68 6
21 12 55 15 75 2 20 9 52 14 72 9 35 14 58 26 135 9 56 12 59 46 30 45 -38 83
-33 129 15 99 103 76 339 -37 386 -41 17 -33 18 -74 -4z"/>
</g>
</svg>
